<svg xmlns="http://www.w3.org/2000/svg" xmlns:xlink="http://www.w3.org/1999/xlink" width="1366" zoomAndPan="magnify" viewBox="0 0 1024.5 576" height="768" preserveAspectRatio="xMidYMid meet" version="1.0"><defs><clipPath id="5adfe320f5"><path d="M 0 0.253906 L 374.570312 0.253906 L 374.570312 187.289062 L 0 187.289062 Z M 0 0.253906 " clip-rule="nonzero"/></clipPath><clipPath id="69d73a22e6"><path d="M 324.726562 184.007812 L 699.296875 184.007812 L 699.296875 371.351562 L 324.726562 371.351562 Z M 324.726562 184.007812 " clip-rule="nonzero"/></clipPath><clipPath id="e15cb74fba"><path d="M 0.800781 0.191406 L 375.257812 0.191406 L 375.257812 187.351562 L 0.800781 187.351562 Z M 0.800781 0.191406 " clip-rule="nonzero"/></clipPath><clipPath id="b4385f777f"><rect x="0" width="376" y="0" height="188"/></clipPath><clipPath id="22f8f74775"><path d="M 649.472656 1 L 1024 1 L 1024 188.117188 L 649.472656 188.117188 Z M 649.472656 1 " clip-rule="nonzero"/></clipPath><clipPath id="6bb1534c20"><rect x="0" width="1024" y="0" height="372"/></clipPath></defs><g transform="matrix(1, 0, 0, 1, 0, 98)"><g clip-path="url(#6bb1534c20)"><g clip-path="url(#5adfe320f5)"><path fill="#a60404" d="M 374.414062 187.441406 L 324.742188 187.441406 C 324.742188 111.625 263.066406 49.949219 187.257812 49.949219 C 111.449219 49.949219 49.765625 111.625 49.765625 187.441406 L 0.09375 187.441406 C 0.09375 130.351562 25.484375 77.167969 70.910156 40.773438 C 98.144531 18.96875 131.09375 5.308594 165.769531 1.472656 C 223.640625 -4.9375 279.21875 14.722656 319.597656 55.101562 C 354.941406 90.453125 374.414062 137.453125 374.414062 187.441406 Z M 374.414062 187.441406 " fill-opacity="1" fill-rule="nonzero"/></g><g clip-path="url(#69d73a22e6)"><g transform="matrix(1, 0, 0, 1, 324, 184)"><g clip-path="url(#b4385f777f)"><g clip-path="url(#e15cb74fba)"><path fill="#a60404" d="M 375.140625 0.0390625 L 325.46875 0.0390625 C 325.46875 75.855469 263.792969 137.53125 187.984375 137.53125 C 112.175781 137.53125 50.492188 75.855469 50.492188 0.0390625 L 0.824219 0.0390625 C 0.824219 57.128906 26.210938 110.3125 71.640625 146.707031 C 98.871094 168.515625 131.820312 182.171875 166.496094 186.011719 C 224.367188 192.417969 279.949219 172.761719 320.324219 132.378906 C 355.667969 97.027344 375.140625 50.027344 375.140625 0.0390625 Z M 375.140625 0.0390625 " fill-opacity="1" fill-rule="nonzero"/></g></g></g></g><g clip-path="url(#22f8f74775)"><path fill="#a60404" d="M 1023.886719 188.269531 L 974.214844 188.269531 C 974.214844 112.457031 912.539062 50.777344 836.730469 50.777344 C 760.921875 50.777344 699.238281 112.457031 699.238281 188.269531 L 649.566406 188.269531 C 649.566406 131.179688 674.957031 77.996094 720.382812 41.601562 C 747.617188 19.796875 780.566406 6.136719 815.242188 2.300781 C 873.113281 -4.105469 928.691406 15.550781 969.066406 55.929688 C 1004.414062 91.285156 1023.886719 138.285156 1023.886719 188.269531 Z M 1023.886719 188.269531 " fill-opacity="1" fill-rule="nonzero"/></g></g></g></svg>