<svg xmlns="http://www.w3.org/2000/svg" width="1260" height="484" version="1.0" viewBox="0 0 944.88 363"><defs><clipPath id="b"><path d="M0 .023h944.762v362.954H0Zm0 0"/></clipPath><clipPath id="c"><path d="M0 .023h242V222H0Zm0 0"/></clipPath><clipPath id="d"><path d="m-75.977 205.418 300.055-314.953 24.367 23.215-300.054 314.953Zm0 0"/></clipPath><clipPath id="e"><path d="M-64.371 193.234 212.395-97.27c6.41-6.73 17.062-6.988 23.789-.578 6.73 6.41 6.988 17.063.578 23.79L-40.004 216.448c-6.41 6.727-17.062 6.985-23.789.574-6.73-6.41-6.988-17.058-.578-23.789m0 0"/></clipPath><clipPath id="g"><path d="M0 .023h242V222H0Zm0 0"/></clipPath><clipPath id="h"><path d="m-75.977 205.418 300.055-314.953 24.367 23.215-300.054 314.953Zm0 0"/></clipPath><clipPath id="i"><path d="M-64.371 193.234 212.395-97.27c6.41-6.73 17.062-6.988 23.789-.578 6.73 6.41 6.988 17.063.578 23.79L-40.004 216.448c-6.41 6.727-17.062 6.985-23.789.574-6.73-6.41-6.988-17.058-.578-23.789m0 0"/></clipPath><clipPath id="f"><path d="M0 0h242v222H0z"/></clipPath><clipPath id="j"><path d="M747 97h197.762v265.977H747Zm0 0"/></clipPath><clipPath id="k"><path d="m740.29 405.195 300.054-314.953 24.367 23.215L764.652 428.41Zm0 0"/></clipPath><clipPath id="l"><path d="m751.895 393.012 276.765-290.504c6.41-6.727 17.063-6.988 23.79-.574 6.73 6.41 6.987 17.058.577 23.789L776.262 416.227c-6.41 6.73-17.063 6.988-23.79.578-6.73-6.41-6.988-17.063-.577-23.793m0 0"/></clipPath><clipPath id="n"><path d="M0 0h197.762v265.977H0Zm0 0"/></clipPath><clipPath id="o"><path d="M-6.71 308.195 293.343-6.758l24.367 23.215L17.652 331.41Zm0 0"/></clipPath><clipPath id="p"><path d="M4.895 296.012 281.66 5.508c6.41-6.727 17.063-6.988 23.79-.574 6.73 6.41 6.988 17.058.577 23.789L29.262 319.227c-6.41 6.73-17.063 6.988-23.79.578-6.73-6.41-6.988-17.063-.577-23.793m0 0"/></clipPath><clipPath id="m"><path d="M0 0h198v266H0z"/></clipPath><clipPath id="q"><path d="M0 38h137v324.977H0Zm0 0"/></clipPath><clipPath id="r"><path d="M-181.281 346.512 118.773 31.559l24.368 23.21-300.059 314.954Zm0 0"/></clipPath><clipPath id="s"><path d="M-169.676 334.328 107.09 43.82c6.41-6.726 17.062-6.984 23.789-.574 6.73 6.41 6.988 17.063.578 23.79l-276.766 290.503c-6.41 6.73-17.062 6.988-23.793.578-6.726-6.41-6.984-17.062-.574-23.789m0 0"/></clipPath><clipPath id="u"><path d="M0 0h137v324.977H0Zm0 0"/></clipPath><clipPath id="v"><path d="M-181.281 308.512 118.773-6.441l24.368 23.21-300.059 314.954Zm0 0"/></clipPath><clipPath id="w"><path d="M-169.676 296.328 107.09 5.82c6.41-6.726 17.062-6.984 23.789-.574 6.73 6.41 6.988 17.063.578 23.79l-276.766 290.503c-6.41 6.73-17.062 6.988-23.793.578-6.726-6.41-6.984-17.062-.574-23.789m0 0"/></clipPath><clipPath id="x"><path d="M-181.281 308.512 118.684-6.348l24.367 23.215-299.969 314.856Zm0 0"/></clipPath><clipPath id="y"><path d="M-181.281 308.512 118.695-6.36l24.368 23.21-299.981 314.872Zm0 0"/></clipPath><clipPath id="t"><path d="M0 0h137v325H0z"/></clipPath><clipPath id="A"><path d="M0 .023h189V165H0Zm0 0"/></clipPath><clipPath id="B"><path d="m-109.332 96.414 226.25-237.48 71.777 68.382-226.25 237.48Zm0 0"/></clipPath><clipPath id="C"><path d="m3.742-22.273 184.723-50.43-226.149 237.379Zm0 0"/></clipPath><clipPath id="E"><path d="M0 .023h188.617v164.86H0Zm0 0"/></clipPath><clipPath id="F"><path d="m-109.332 96.414 226.25-237.48 71.777 68.382-226.25 237.48Zm0 0"/></clipPath><clipPath id="G"><path d="m3.742-22.273 184.723-50.43-226.149 237.379Zm0 0"/></clipPath><clipPath id="H"><path d="m-109.332 96.414 226.25-237.48 71.777 68.382-226.25 237.48Zm0 0"/></clipPath><clipPath id="I"><path d="m-109.336 96.418 226.152-237.379 71.649 68.262-226.152 237.375Zm0 0"/></clipPath><clipPath id="D"><path d="M0 0h189v165H0z"/></clipPath><clipPath id="K"><path d="M26 .023h149V73H26Zm0 0"/></clipPath><clipPath id="L"><path d="M19.695 56.156 157.527-88.52l24.364 23.215L44.063 79.371Zm0 0"/></clipPath><clipPath id="M"><path d="M31.3 43.973 145.896-76.31c6.41-6.726 17.062-6.984 23.789-.574 6.73 6.41 6.988 17.059.578 23.79L55.668 67.186c-6.41 6.731-17.063 6.989-23.79.579-6.73-6.41-6.987-17.063-.577-23.793m0 0"/></clipPath><clipPath id="O"><path d="M0 .023h149V73H0Zm0 0"/></clipPath><clipPath id="P"><path d="M-6.305 56.156 131.527-88.52l24.364 23.215L18.063 79.371Zm0 0"/></clipPath><clipPath id="Q"><path d="M5.3 43.973 119.896-76.31c6.41-6.726 17.062-6.984 23.789-.574 6.73 6.41 6.988 17.059.578 23.79L29.668 67.186c-6.41 6.731-17.063 6.989-23.79.579-6.73-6.41-6.987-17.063-.577-23.793m0 0"/></clipPath><clipPath id="N"><path d="M0 0h149v73H0z"/></clipPath><clipPath id="R"><path d="M69 .023h170V170H69Zm0 0"/></clipPath><clipPath id="S"><path d="M0 .023h561v362.954H0Zm0 0"/></clipPath><clipPath id="V"><path d="M0 .023h530v362.954H0Zm0 0"/></clipPath><clipPath id="W"><path d="M-75.973 330.43 420.16-190.34 560.496-56.645 64.36 464.125Zm0 0"/></clipPath><clipPath id="X"><path d="m-24.246 276.133 392.672-412.168c28.566-29.985 76.035-31.133 106.02-2.567l31.745 30.243c29.985 28.566 31.137 76.035 2.567 106.023L116.086 409.828c-28.566 29.988-76.035 31.137-106.02 2.57l-31.746-30.242c-29.984-28.57-31.136-76.035-2.566-106.023m0 0"/></clipPath><clipPath id="Z"><path d="M0 .023h530v362.954H0Zm0 0"/></clipPath><clipPath id="aa"><path d="M-75.973 330.43 420.16-190.34 560.496-56.645 64.36 464.125Zm0 0"/></clipPath><clipPath id="ab"><path d="m-24.246 276.133 392.672-412.168c28.566-29.985 76.035-31.133 106.02-2.567l31.745 30.243c29.985 28.566 31.137 76.035 2.567 106.023L116.086 409.828c-28.566 29.988-76.035 31.137-106.02 2.57l-31.746-30.242c-29.984-28.57-31.136-76.035-2.566-106.023m0 0"/></clipPath><clipPath id="Y"><path d="M0 0h530v363H0z"/></clipPath><clipPath id="U"><path d="M0 0h561v363H0z"/></clipPath><clipPath id="ac"><path d="M0 182h145v180.977H0Zm0 0"/></clipPath><clipPath id="ad"><path d="M0 156h279v206.977H0Zm0 0"/></clipPath><clipPath id="ae"><path d="M0 200h261v162.977H0Zm0 0"/></clipPath><clipPath id="af"><path d="M129 .023h638v362.954H129Zm0 0"/></clipPath><clipPath id="ai"><path d="M20 .023h598v362.954H20Zm0 0"/></clipPath><clipPath id="aj"><path d="m.453 455.512 568.465-596.684 68.621 65.375L69.08 520.887Zm0 0"/></clipPath><clipPath id="ak"><path d="m33.145 421.2 502.882-527.848a47.38 47.38 0 0 1 33.164-14.688 47.4 47.4 0 0 1 33.836 13.063 47.4 47.4 0 0 1 14.688 33.164 47.4 47.4 0 0 1-13.067 33.836L101.766 486.578a47.4 47.4 0 0 1-33.164 14.688 47.4 47.4 0 0 1-33.836-13.067 47.386 47.386 0 0 1-1.621-67m0 0"/></clipPath><clipPath id="am"><path d="M0 .023h598v362.954H0Zm0 0"/></clipPath><clipPath id="an"><path d="m-19.547 455.512 568.465-596.684 68.621 65.375L49.08 520.887Zm0 0"/></clipPath><clipPath id="ao"><path d="m13.145 421.2 502.882-527.848a47.38 47.38 0 0 1 33.164-14.688 47.4 47.4 0 0 1 33.836 13.063 47.4 47.4 0 0 1 14.688 33.164 47.4 47.4 0 0 1-13.067 33.836L81.766 486.578a47.4 47.4 0 0 1-33.164 14.688 47.4 47.4 0 0 1-33.836-13.067 47.386 47.386 0 0 1-1.621-67m0 0"/></clipPath><clipPath id="al"><path d="M0 0h598v363H0z"/></clipPath><clipPath id="ah"><path d="M0 0h638v363H0z"/></clipPath><clipPath id="ap"><path d="M813 .023h131.762V325H813Zm0 0"/></clipPath><clipPath id="aq"><path d="M806.36 308.715 1106.413-6.238l24.367 23.215L830.723 331.93Zm0 0"/></clipPath><clipPath id="ar"><path d="M817.965 296.531 1094.73 6.027c6.41-6.73 17.063-6.988 23.79-.578 6.73 6.41 6.988 17.063.578 23.79L842.332 319.745c-6.41 6.727-17.062 6.984-23.789.574-6.73-6.41-6.988-17.058-.578-23.789m0 0"/></clipPath><clipPath id="at"><path d="M0 .023h131.762V325H0Zm0 0"/></clipPath><clipPath id="au"><path d="M-6.64 308.715 293.413-6.238l24.367 23.215L17.723 331.93Zm0 0"/></clipPath><clipPath id="av"><path d="M4.965 296.531 281.73 6.027c6.41-6.73 17.063-6.988 23.79-.578 6.73 6.41 6.988 17.063.578 23.79L29.332 319.745c-6.41 6.727-17.062 6.984-23.789.574-6.73-6.41-6.988-17.058-.578-23.789m0 0"/></clipPath><clipPath id="aw"><path d="M-6.64 308.715 293.323-6.145 317.69 17.07 17.723 331.93Zm0 0"/></clipPath><clipPath id="ax"><path d="M-6.64 308.715 293.335-6.156l24.367 23.215-299.98 314.87Zm0 0"/></clipPath><clipPath id="as"><path d="M0 0h132v325H0z"/></clipPath><clipPath id="az"><path d="M842 65h102.762v176H842Zm0 0"/></clipPath><clipPath id="aA"><path d="M676 203h180v159.977H676Zm0 0"/></clipPath><clipPath id="aB"><path d="M753 200h191.762v162.977H753Zm0 0"/></clipPath><clipPath id="aC"><path d="M1051.871 269.465 824.367 505.75l-71.414-68.762 227.5-236.285Zm0 0"/></clipPath><clipPath id="aD"><path d="M938.168 387.555 753.18 437.008l227.402-236.18Zm0 0"/></clipPath><clipPath id="aF"><path d="M.023.637h191.739v162.34H.023Zm0 0"/></clipPath><clipPath id="aG"><path d="M298.871 69.465 71.367 305.75-.047 236.988 227.453.703Zm0 0"/></clipPath><clipPath id="aH"><path d="M185.168 187.555.18 237.008 227.582.828Zm0 0"/></clipPath><clipPath id="aI"><path d="M298.871 69.465 71.367 305.75-.047 236.988 227.453.703Zm0 0"/></clipPath><clipPath id="aJ"><path d="M298.871 69.465 71.47 305.645.184 237.008 227.586.828Zm0 0"/></clipPath><clipPath id="aE"><path d="M0 0h192v163H0z"/></clipPath><clipPath id="aL"><path d="M772 286h149v76.977H772Zm0 0"/></clipPath><clipPath id="aM"><path d="M765.738 423.691 903.57 279.016l24.364 23.214-137.832 144.676Zm0 0"/></clipPath><clipPath id="aN"><path d="m777.344 411.508 114.593-120.281c6.41-6.727 17.06-6.985 23.79-.575 6.726 6.41 6.984 17.059.574 23.79l-114.59 120.28c-6.41 6.731-17.063 6.989-23.79.579-6.73-6.414-6.987-17.063-.577-23.793m0 0"/></clipPath><clipPath id="aP"><path d="M0 0h149v76.977H0Zm0 0"/></clipPath><clipPath id="aQ"><path d="M-6.262 137.691 131.57-6.984l24.364 23.214L18.102 160.906Zm0 0"/></clipPath><clipPath id="aR"><path d="M5.344 125.508 119.938 5.227c6.41-6.727 17.058-6.985 23.789-.575 6.726 6.41 6.984 17.059.574 23.79L29.71 148.721c-6.41 6.731-17.063 6.989-23.79.579-6.73-6.414-6.987-17.063-.577-23.793m0 0"/></clipPath><clipPath id="aO"><path d="M0 0h149v77H0z"/></clipPath><clipPath id="aS"><path d="M372 .023h572.762v362.954H372Zm0 0"/></clipPath><clipPath id="aV"><path d="M31 .023h541.762v362.954H31Zm0 0"/></clipPath><clipPath id="aW"><path d="m636.664 18.656-496.133 520.77L.195 405.73l496.137-520.77Zm0 0"/></clipPath><clipPath id="aX"><path d="M584.938 72.953 192.265 485.121c-28.567 29.984-76.036 31.133-106.02 2.567L54.5 457.445c-29.984-28.566-31.133-76.035-2.566-106.02L444.605-60.741c28.57-29.988 76.036-31.137 106.024-2.57L582.37-33.07c29.984 28.57 31.137 76.035 2.567 106.023m0 0"/></clipPath><clipPath id="aZ"><path d="M0 .023h541.762v362.954H0Zm0 0"/></clipPath><clipPath id="ba"><path d="m605.664 18.656-496.133 520.77L-30.805 405.73l496.137-520.77Zm0 0"/></clipPath><clipPath id="bb"><path d="M553.938 72.953 161.265 485.121c-28.567 29.984-76.036 31.133-106.02 2.567L23.5 457.445c-29.984-28.566-31.133-76.035-2.566-106.02L413.605-60.741c28.57-29.988 76.036-31.137 106.024-2.57L551.37-33.07c29.984 28.57 31.137 76.035 2.567 106.023m0 0"/></clipPath><clipPath id="aY"><path d="M0 0h542v363H0z"/></clipPath><clipPath id="aU"><path d="M0 0h573v363H0z"/></clipPath><clipPath id="bc"><path d="M781 39h163.762v191H781Zm0 0"/></clipPath><clipPath id="bd"><path d="M663 27h281.762v295H663Zm0 0"/></clipPath><clipPath id="be"><path d="M788 .023h156.762V167H788Zm0 0"/></clipPath><clipPath id="bf"><path d="M654 .023h290.762V193H654Zm0 0"/></clipPath><clipPath id="bg"><path d="M672 .023h272.762V149H672Zm0 0"/></clipPath><linearGradient id="z" x1="1654.073" x2="1654.073" y1="-626.451" y2="1844.113" gradientTransform="rotate(-46.387 269.373 365.797)scale(.13146)" gradientUnits="userSpaceOnUse"><stop offset="0" stop-color="red"/><stop offset=".25" stop-color="red"/><stop offset=".254" stop-color="#FA0101"/><stop offset=".258" stop-color="#F60101"/><stop offset=".262" stop-color="#ED0202"/><stop offset=".266" stop-color="#E50304"/><stop offset=".27" stop-color="#DC0505"/><stop offset=".273" stop-color="#D40606"/><stop offset=".277" stop-color="#CC0707"/><stop offset=".281" stop-color="#C30808"/><stop offset=".285" stop-color="#BB0909"/><stop offset=".289" stop-color="#B20A0B"/><stop offset=".293" stop-color="#AA0B0C"/><stop offset=".297" stop-color="#A10D0D"/><stop offset=".301" stop-color="#990E0E"/><stop offset=".305" stop-color="#900F0F"/><stop offset=".309" stop-color="#881010"/><stop offset=".313" stop-color="#801112"/><stop offset=".316" stop-color="#771213"/><stop offset=".32" stop-color="#6F1314"/><stop offset=".324" stop-color="#661415"/><stop offset=".328" stop-color="#5E1616"/><stop offset=".332" stop-color="#551717"/><stop offset=".336" stop-color="#4D1819"/><stop offset=".34" stop-color="#44191A"/><stop offset=".344" stop-color="#3C1A1B"/><stop offset=".348" stop-color="#341B1C"/><stop offset=".352" stop-color="#2B1C1D"/><stop offset=".355" stop-color="#251D1E"/><stop offset=".359" stop-color="#1F1E1F"/><stop offset=".375" stop-color="#1F1E1F"/><stop offset=".5" stop-color="#1F1E1F"/><stop offset="1" stop-color="#1F1E1F"/></linearGradient><linearGradient id="J" x1="423.312" x2="423.312" y1="32.719" y2="678.351" gradientTransform="rotate(-46.387 57.846 175.798)scale(.38726)" gradientUnits="userSpaceOnUse"><stop offset="0" stop-color="#E20404"/><stop offset=".004" stop-color="#E00404"/><stop offset=".008" stop-color="#DE0405"/><stop offset=".012" stop-color="#DC0505"/><stop offset=".016" stop-color="#D90505"/><stop offset=".02" stop-color="#D70505"/><stop offset=".023" stop-color="#D50606"/><stop offset=".027" stop-color="#D30606"/><stop offset=".031" stop-color="#D10606"/><stop offset=".035" stop-color="#CE0707"/><stop offset=".039" stop-color="#CC0707"/><stop offset=".043" stop-color="#CA0707"/><stop offset=".047" stop-color="#C80708"/><stop offset=".051" stop-color="#C60808"/><stop offset=".055" stop-color="#C30808"/><stop offset=".059" stop-color="#C10809"/><stop offset=".063" stop-color="#BF0909"/><stop offset=".066" stop-color="#BD0909"/><stop offset=".07" stop-color="#BB0909"/><stop offset=".074" stop-color="#B8090A"/><stop offset=".078" stop-color="#B60A0A"/><stop offset=".082" stop-color="#B40A0A"/><stop offset=".086" stop-color="#B20A0B"/><stop offset=".09" stop-color="#AF0B0B"/><stop offset=".094" stop-color="#AD0B0B"/><stop offset=".098" stop-color="#AB0B0C"/><stop offset=".102" stop-color="#A90C0C"/><stop offset=".105" stop-color="#A70C0C"/><stop offset=".109" stop-color="#A40C0D"/><stop offset=".113" stop-color="#A20C0D"/><stop offset=".117" stop-color="#A00D0D"/><stop offset=".121" stop-color="#9E0D0D"/><stop offset=".125" stop-color="#9C0D0E"/><stop offset=".129" stop-color="#990E0E"/><stop offset=".133" stop-color="#970E0E"/><stop offset=".137" stop-color="#950E0F"/><stop offset=".141" stop-color="#930E0F"/><stop offset=".145" stop-color="#910F0F"/><stop offset=".148" stop-color="#8E0F10"/><stop offset=".152" stop-color="#8C0F10"/><stop offset=".156" stop-color="#8A1010"/><stop offset=".16" stop-color="#881011"/><stop offset=".164" stop-color="#851011"/><stop offset=".168" stop-color="#831111"/><stop offset=".172" stop-color="#811111"/><stop offset=".176" stop-color="#7F1112"/><stop offset=".18" stop-color="#7D1112"/><stop offset=".184" stop-color="#7A1212"/><stop offset=".188" stop-color="#781213"/><stop offset=".191" stop-color="#761213"/><stop offset=".195" stop-color="#741313"/><stop offset=".199" stop-color="#721314"/><stop offset=".203" stop-color="#6F1314"/><stop offset=".207" stop-color="#6D1414"/><stop offset=".211" stop-color="#6B1414"/><stop offset=".215" stop-color="#691415"/><stop offset=".219" stop-color="#671415"/><stop offset=".223" stop-color="#641515"/><stop offset=".227" stop-color="#621516"/><stop offset=".23" stop-color="#601516"/><stop offset=".234" stop-color="#5E1616"/><stop offset=".238" stop-color="#5B1617"/><stop offset=".242" stop-color="#591617"/><stop offset=".246" stop-color="#571617"/><stop offset=".25" stop-color="#551718"/><stop offset=".254" stop-color="#531718"/><stop offset=".258" stop-color="#501718"/><stop offset=".262" stop-color="#4E1818"/><stop offset=".266" stop-color="#4C1819"/><stop offset=".27" stop-color="#4A1819"/><stop offset=".273" stop-color="#481919"/><stop offset=".277" stop-color="#45191A"/><stop offset=".281" stop-color="#43191A"/><stop offset=".285" stop-color="#41191A"/><stop offset=".289" stop-color="#3F1A1B"/><stop offset=".293" stop-color="#3D1A1B"/><stop offset=".297" stop-color="#3A1A1B"/><stop offset=".301" stop-color="#381B1C"/><stop offset=".305" stop-color="#361B1C"/><stop offset=".309" stop-color="#341B1C"/><stop offset=".313" stop-color="#311C1C"/><stop offset=".316" stop-color="#2F1C1D"/><stop offset=".32" stop-color="#2D1C1D"/><stop offset=".324" stop-color="#2B1C1D"/><stop offset=".328" stop-color="#291D1E"/><stop offset=".332" stop-color="#261D1E"/><stop offset=".336" stop-color="#241D1E"/><stop offset=".34" stop-color="#221E1F"/><stop offset=".344" stop-color="#201E1F"/><stop offset=".375" stop-color="#1F1E1F"/><stop offset=".5" stop-color="#1F1E1F"/><stop offset="1" stop-color="#1F1E1F"/></linearGradient><linearGradient id="ay" x1="1654.073" x2="1654.073" y1="-1591.087" y2="856.784" gradientTransform="rotate(-46.387 356.93 162.104)scale(.13146)" gradientUnits="userSpaceOnUse"><stop offset="0" stop-color="red"/><stop offset=".5" stop-color="red"/><stop offset=".625" stop-color="red"/><stop offset=".641" stop-color="red"/><stop offset=".648" stop-color="red"/><stop offset=".652" stop-color="#F80101"/><stop offset=".656" stop-color="#F20202"/><stop offset=".66" stop-color="#E90303"/><stop offset=".664" stop-color="#E10404"/><stop offset=".668" stop-color="#D80505"/><stop offset=".672" stop-color="#D00606"/><stop offset=".676" stop-color="#C80708"/><stop offset=".68" stop-color="#BF0909"/><stop offset=".684" stop-color="#B70A0A"/><stop offset=".688" stop-color="#AF0B0B"/><stop offset=".691" stop-color="#A60C0C"/><stop offset=".695" stop-color="#9E0D0D"/><stop offset=".699" stop-color="#960E0F"/><stop offset=".703" stop-color="#8D0F10"/><stop offset=".707" stop-color="#851011"/><stop offset=".711" stop-color="#7C1112"/><stop offset=".715" stop-color="#741313"/><stop offset=".719" stop-color="#6C1414"/><stop offset=".723" stop-color="#631516"/><stop offset=".727" stop-color="#5B1617"/><stop offset=".73" stop-color="#531718"/><stop offset=".734" stop-color="#4A1819"/><stop offset=".738" stop-color="#42191A"/><stop offset=".742" stop-color="#3A1A1B"/><stop offset=".746" stop-color="#311C1C"/><stop offset=".75" stop-color="#291D1E"/><stop offset=".754" stop-color="#241D1E"/><stop offset=".758" stop-color="#1F1E1F"/><stop offset=".766" stop-color="#1F1E1F"/><stop offset=".781" stop-color="#1F1E1F"/><stop offset=".813" stop-color="#1F1E1F"/><stop offset=".875" stop-color="#1F1E1F"/><stop offset="1" stop-color="#1F1E1F"/></linearGradient><linearGradient id="aK" x1="423.312" x2="423.312" y1="31.76" y2="678.544" gradientTransform="rotate(133.915 134.662 98.294)scale(.38726)" gradientUnits="userSpaceOnUse"><stop offset="0" stop-color="#E30404"/><stop offset=".004" stop-color="#E10404"/><stop offset=".008" stop-color="#DF0404"/><stop offset=".012" stop-color="#DD0505"/><stop offset=".016" stop-color="#DA0505"/><stop offset=".02" stop-color="#D80505"/><stop offset=".023" stop-color="#D60606"/><stop offset=".027" stop-color="#D40606"/><stop offset=".031" stop-color="#D10606"/><stop offset=".035" stop-color="#CF0607"/><stop offset=".039" stop-color="#CD0707"/><stop offset=".043" stop-color="#CB0707"/><stop offset=".047" stop-color="#C90708"/><stop offset=".051" stop-color="#C60808"/><stop offset=".055" stop-color="#C40808"/><stop offset=".059" stop-color="#C20808"/><stop offset=".063" stop-color="#C00809"/><stop offset=".066" stop-color="#BE0909"/><stop offset=".07" stop-color="#BB0909"/><stop offset=".074" stop-color="#B9090A"/><stop offset=".078" stop-color="#B70A0A"/><stop offset=".082" stop-color="#B50A0A"/><stop offset=".086" stop-color="#B20A0B"/><stop offset=".09" stop-color="#B00B0B"/><stop offset=".094" stop-color="#AE0B0B"/><stop offset=".098" stop-color="#AC0B0C"/><stop offset=".102" stop-color="#AA0B0C"/><stop offset=".105" stop-color="#A70C0C"/><stop offset=".109" stop-color="#A50C0C"/><stop offset=".113" stop-color="#A30C0D"/><stop offset=".117" stop-color="#A10D0D"/><stop offset=".121" stop-color="#9F0D0D"/><stop offset=".125" stop-color="#9C0D0E"/><stop offset=".129" stop-color="#9A0E0E"/><stop offset=".133" stop-color="#980E0E"/><stop offset=".137" stop-color="#960E0F"/><stop offset=".141" stop-color="#930E0F"/><stop offset=".145" stop-color="#910F0F"/><stop offset=".148" stop-color="#8F0F10"/><stop offset=".152" stop-color="#8D0F10"/><stop offset=".156" stop-color="#8B1010"/><stop offset=".16" stop-color="#881010"/><stop offset=".164" stop-color="#861011"/><stop offset=".168" stop-color="#841011"/><stop offset=".172" stop-color="#821111"/><stop offset=".176" stop-color="#7F1112"/><stop offset=".18" stop-color="#7D1112"/><stop offset=".184" stop-color="#7B1212"/><stop offset=".188" stop-color="#791213"/><stop offset=".191" stop-color="#771213"/><stop offset=".195" stop-color="#741313"/><stop offset=".199" stop-color="#721313"/><stop offset=".203" stop-color="#701314"/><stop offset=".207" stop-color="#6E1314"/><stop offset=".211" stop-color="#6C1414"/><stop offset=".215" stop-color="#691415"/><stop offset=".219" stop-color="#671415"/><stop offset=".223" stop-color="#651515"/><stop offset=".227" stop-color="#631516"/><stop offset=".23" stop-color="#601516"/><stop offset=".234" stop-color="#5E1616"/><stop offset=".238" stop-color="#5C1617"/><stop offset=".242" stop-color="#5A1617"/><stop offset=".246" stop-color="#581617"/><stop offset=".25" stop-color="#551717"/><stop offset=".254" stop-color="#531718"/><stop offset=".258" stop-color="#511718"/><stop offset=".262" stop-color="#4F1818"/><stop offset=".266" stop-color="#4D1819"/><stop offset=".27" stop-color="#4A1819"/><stop offset=".273" stop-color="#481819"/><stop offset=".277" stop-color="#46191A"/><stop offset=".281" stop-color="#44191A"/><stop offset=".285" stop-color="#41191A"/><stop offset=".289" stop-color="#3F1A1B"/><stop offset=".293" stop-color="#3D1A1B"/><stop offset=".297" stop-color="#3B1A1B"/><stop offset=".301" stop-color="#391B1B"/><stop offset=".305" stop-color="#361B1C"/><stop offset=".309" stop-color="#341B1C"/><stop offset=".313" stop-color="#321B1C"/><stop offset=".316" stop-color="#301C1D"/><stop offset=".32" stop-color="#2E1C1D"/><stop offset=".324" stop-color="#2B1C1D"/><stop offset=".328" stop-color="#291D1E"/><stop offset=".332" stop-color="#271D1E"/><stop offset=".336" stop-color="#251D1E"/><stop offset=".34" stop-color="#221E1F"/><stop offset=".344" stop-color="#201E1F"/><stop offset=".348" stop-color="#201E1F"/><stop offset=".352" stop-color="#1F1E1F"/><stop offset=".359" stop-color="#1F1E1F"/><stop offset=".375" stop-color="#1F1E1F"/><stop offset=".5" stop-color="#1F1E1F"/><stop offset="1" stop-color="#1F1E1F"/></linearGradient><mask id="T"><g filter="url(#a)"><path fill-opacity=".26" d="M-94.488-36.3h1133.856v435.6H-94.488z"/></g></mask><mask id="ag"><g filter="url(#a)"><path fill-opacity=".26" d="M-94.488-36.3h1133.856v435.6H-94.488z"/></g></mask><mask id="aT"><g filter="url(#a)"><path fill-opacity=".26" d="M-94.488-36.3h1133.856v435.6H-94.488z"/></g></mask><filter id="a" width="100%" height="100%" x="0%" y="0%"><feColorMatrix color-interpolation-filters="sRGB" values="0 0 0 0 1 0 0 0 0 1 0 0 0 0 1 0 0 0 1 0"/></filter></defs><g fill="#fff" clip-path="url(#b)"><path d="M0 .023h944.879v362.954H0Zm0 0"/><path d="M0 .023h944.879v362.954H0Zm0 0"/></g><g clip-path="url(#c)"><g clip-path="url(#d)"><g clip-path="url(#e)"><g clip-path="url(#f)"><g clip-path="url(#g)"><g clip-path="url(#h)"><g clip-path="url(#i)"><path fill="#e9e8e6" d="m-75.977 205.418 299.965-314.86 24.367 23.215-299.964 314.86Zm0 0"/></g></g></g></g></g></g></g><g clip-path="url(#j)"><g clip-path="url(#k)"><g clip-path="url(#l)"><g clip-path="url(#m)" transform="translate(747 97)"><g clip-path="url(#n)"><g clip-path="url(#o)"><g clip-path="url(#p)"><path fill="#e9e8e6" d="M-6.71 308.195 293.253-6.66l24.367 23.21L17.652 331.41Zm0 0"/></g></g></g></g></g></g></g><g clip-path="url(#q)"><g clip-path="url(#r)"><g clip-path="url(#s)"><g clip-path="url(#t)" transform="translate(0 38)"><g clip-path="url(#u)"><g clip-path="url(#v)"><g clip-path="url(#w)"><g clip-path="url(#x)"><g clip-path="url(#y)"><path fill="url(#z)" d="M-162.879 169.8 72.27 393.829l228.476-239.816L65.594-70.016Zm0 0"/></g></g></g></g></g></g></g></g></g><g clip-path="url(#A)"><g clip-path="url(#B)"><g clip-path="url(#C)"><g clip-path="url(#D)"><g clip-path="url(#E)"><g clip-path="url(#F)"><g clip-path="url(#G)"><g clip-path="url(#H)"><g clip-path="url(#I)"><path fill="url(#J)" d="m-82.23 86.336 181.023 172.46L270.691 78.364 89.668-94.097Zm0 0"/></g></g></g></g></g></g></g></g></g><g clip-path="url(#K)"><g clip-path="url(#L)"><g clip-path="url(#M)"><g clip-path="url(#N)" transform="translate(26)"><g clip-path="url(#O)"><g clip-path="url(#P)"><g clip-path="url(#Q)"><path fill="#dbdbdb" d="M-6.305 56.156 131.527-88.52l24.364 23.215L18.063 79.371Zm0 0"/></g></g></g></g></g></g></g><path fill="none" stroke="#cd0000" stroke-width="1.5" d="m-25.047 244.59 134.281-141.414"/><path fill="#cd0000" stroke="#cd0000" stroke-linecap="round" stroke-linejoin="round" stroke-width="1.5" d="M112.59 99.644c.902.856.937 2.278.082 3.18a2.25 2.25 0 0 1-3.18.082 2.25 2.25 0 0 1-.082-3.18 2.244 2.244 0 0 1 3.18-.082"/><g clip-path="url(#R)"><path fill="none" stroke="#cd0000" stroke-width="1.5" d="M77.527 160.621 229.731-10.066"/></g><path fill="#cd0000" stroke="#cd0000" stroke-linecap="round" stroke-linejoin="round" stroke-width="1.5" d="M74.285 164.262a2.25 2.25 0 1 1 2.992-3.36c.93.828 1.012 2.25.184 3.176a2.253 2.253 0 0 1-3.176.184"/><g clip-path="url(#S)" mask="url(#T)"><g clip-path="url(#U)"><g clip-path="url(#V)"><g clip-path="url(#W)"><g clip-path="url(#X)"><g clip-path="url(#Y)"><g clip-path="url(#Z)"><g clip-path="url(#aa)"><g clip-path="url(#ab)"><path fill="#dbdbdb" d="M-75.973 330.43 420.16-190.34 560.496-56.645 64.36 464.125Zm0 0"/></g></g></g></g></g></g></g></g></g><path fill="none" stroke="#fff" stroke-width="1.5" d="m-28.922 301.508 171.985-173.563M-16.922 313.512 260.641 36.316"/><g clip-path="url(#ac)"><path fill="none" stroke="#fff" stroke-width="1.5" d="m-35.84 362.445 171.703-171.703"/></g><g clip-path="url(#ad)"><path fill="none" stroke="#fff" stroke-width="1.5" d="M-32.96 464.125 269.53 164.82"/></g><g clip-path="url(#ae)"><path fill="none" stroke="#fff" stroke-width="1.5" d="m-50.469 508.047 302.496-299.305"/></g><g clip-path="url(#af)" mask="url(#ag)"><g clip-path="url(#ah)" transform="translate(129)"><g clip-path="url(#ai)"><g clip-path="url(#aj)"><g clip-path="url(#ak)"><g clip-path="url(#al)" transform="translate(20)"><g clip-path="url(#am)"><g clip-path="url(#an)"><g clip-path="url(#ao)"><path fill="#dbdbdb" d="m-19.547 455.512 568.211-596.418 68.621 65.379L49.078 520.887Zm0 0"/></g></g></g></g></g></g></g></g></g><g clip-path="url(#ap)"><g clip-path="url(#aq)"><g clip-path="url(#ar)"><g clip-path="url(#as)" transform="translate(813)"><g clip-path="url(#at)"><g clip-path="url(#au)"><g clip-path="url(#av)"><g clip-path="url(#aw)"><g clip-path="url(#ax)"><path fill="url(#ay)" d="M-164.61 171.285 68.384 393.258l226.539-237.79L61.934-66.5Zm0 0"/></g></g></g></g></g></g></g></g></g><g clip-path="url(#az)"><path fill="none" stroke="#cd0000" stroke-width="1.5" d="M850.879 232.418 1015.82 74.004"/></g><path fill="#cd0000" stroke="#cd0000" stroke-linecap="round" stroke-linejoin="round" stroke-width="1.5" d="M847.363 235.797a2.256 2.256 0 0 1 .063-3.184 2.25 2.25 0 0 1 3.183.067 2.25 2.25 0 0 1-3.246 3.117"/><g clip-path="url(#aA)"><path fill="none" stroke="#cd0000" stroke-width="1.5" d="m685.477 373.238 161.71-161.707"/></g><path fill="#cd0000" stroke="#cd0000" stroke-linecap="round" stroke-linejoin="round" stroke-width="1.5" d="M850.633 208.082a2.25 2.25 0 0 1 0 3.184c-.879.878-2.3.878-3.18 0a2.25 2.25 0 0 1 0-3.184 2.247 2.247 0 0 1 3.18 0"/><g clip-path="url(#aB)"><g clip-path="url(#aC)"><g clip-path="url(#aD)"><g clip-path="url(#aE)" transform="translate(753 200)"><g clip-path="url(#aF)"><g clip-path="url(#aG)"><g clip-path="url(#aH)"><g clip-path="url(#aI)"><g clip-path="url(#aJ)"><path fill="url(#aK)" d="M272.777 78.832 92.344-94.891-80.832 84.973l180.43 173.722Zm0 0"/></g></g></g></g></g></g></g></g></g><g clip-path="url(#aL)"><g clip-path="url(#aM)"><g clip-path="url(#aN)"><g clip-path="url(#aO)" transform="translate(772 286)"><g clip-path="url(#aP)"><g clip-path="url(#aQ)"><g clip-path="url(#aR)"><path fill="#dbdbdb" d="M-6.262 137.691 131.57-6.984l24.364 23.214L18.102 160.906Zm0 0"/></g></g></g></g></g></g></g><g clip-path="url(#aS)" mask="url(#aT)"><g clip-path="url(#aU)" transform="translate(372)"><g clip-path="url(#aV)"><g clip-path="url(#aW)"><g clip-path="url(#aX)"><g clip-path="url(#aY)" transform="translate(31)"><g clip-path="url(#aZ)"><g clip-path="url(#ba)"><g clip-path="url(#bb)"><path fill="#dbdbdb" d="m605.664 18.656-496.133 520.77L-30.805 405.73l496.137-520.77Zm0 0"/></g></g></g></g></g></g></g></g></g><g clip-path="url(#bc)"><path fill="none" stroke="#fff" stroke-width="1.5" d="m961.613 47.578-171.98 173.563"/></g><g clip-path="url(#bd)"><path fill="none" stroke="#fff" stroke-width="1.5" d="M949.613 35.574 672.051 312.77"/></g><g clip-path="url(#be)"><path fill="none" stroke="#fff" stroke-width="1.5" d="M968.531-13.36 796.828 158.345"/></g><g clip-path="url(#bf)"><path fill="none" stroke="#fff" stroke-width="1.5" d="M965.656-115.04 663.16 184.267"/></g><g clip-path="url(#bg)"><path fill="none" stroke="#fff" stroke-width="1.5" d="M983.16-158.96 680.664 140.343"/></g></svg>